<?xml version="1.0" encoding="UTF-8" standalone="no"?>
<!-- Created with Inkscape (http://www.inkscape.org/) -->

<svg
   width="100"
   height="100"
   viewBox="0 0 26.458333 26.458334"
   version="1.1"
   id="svg8"
   inkscape:version="1.1.2 (0a00cf5339, 2022-02-04)"
   sodipodi:docname="details.svg"
   xmlns:inkscape="http://www.inkscape.org/namespaces/inkscape"
   xmlns:sodipodi="http://sodipodi.sourceforge.net/DTD/sodipodi-0.dtd"
   xmlns="http://www.w3.org/2000/svg"
   xmlns:svg="http://www.w3.org/2000/svg"
   xmlns:rdf="http://www.w3.org/1999/02/22-rdf-syntax-ns#"
   xmlns:cc="http://creativecommons.org/ns#"
   xmlns:dc="http://purl.org/dc/elements/1.1/">
  <defs
     id="defs2" />
  <sodipodi:namedview
     id="base"
     pagecolor="#ffffff"
     bordercolor="#666666"
     borderopacity="1.0"
     inkscape:pageopacity="0.0"
     inkscape:pageshadow="2"
     inkscape:zoom="3.959798"
     inkscape:cx="110.6117"
     inkscape:cy="115.78874"
     inkscape:document-units="px"
     inkscape:current-layer="layer1"
     showgrid="false"
     units="px"
     inkscape:window-width="2490"
     inkscape:window-height="1376"
     inkscape:window-x="70"
     inkscape:window-y="27"
     inkscape:window-maximized="1"
     inkscape:snap-global="false"
     inkscape:pagecheckerboard="0" />
  <metadata
     id="metadata5">
    <rdf:RDF>
      <cc:Work
         rdf:about="">
        <dc:format>image/svg+xml</dc:format>
        <dc:type
           rdf:resource="http://purl.org/dc/dcmitype/StillImage" />
      </cc:Work>
    </rdf:RDF>
  </metadata>
  <g
     inkscape:label="Layer 1"
     inkscape:groupmode="layer"
     id="layer1"
     transform="translate(0,-270.54166)">
    <g
       transform="translate(0,-198.96085)"
       id="layer1-3"
       inkscape:label="Layer 1" />
    <g
       transform="translate(0,-198.96085)"
       id="layer1-1"
       inkscape:label="Layer 1" />
    <path
       id="path5409-5"
       style="fill:#202020;fill-opacity:1;fill-rule:evenodd;stroke:#aaaaaa;stroke-width:0.529167;stroke-linecap:round;stroke-linejoin:round;stroke-miterlimit:4;stroke-dasharray:none;stroke-dashoffset:19.02;stroke-opacity:1"
       d="m 0.26458333,295.67708 c -0.024974,1.01359 -0.0187369,1.0291 1.05833337,1.05833 H 25.135417 c 1.00822,0.0521 0.98621,-0.10426 1.058333,-1.05833 V 275.83333 H 0.26458333 Z"
       sodipodi:nodetypes="ccccccc" />
    <path
       id="path5409"
       style="opacity:1;fill:#303030;fill-opacity:1;fill-rule:evenodd;stroke:#aaaaaa;stroke-width:0.529167;stroke-linecap:round;stroke-linejoin:round;stroke-miterlimit:4;stroke-dasharray:none;stroke-dashoffset:19.02;stroke-opacity:1"
       d="m 1.3229167,270.80624 c -1.00898211,-0.01 -1.04431823,0.002 -1.05833337,1.05834 v 3.96875 H 26.19375 l 3e-6,-3.96875 c -0.0064,-1.01238 -0.01071,-1.0266 -1.058333,-1.05834 H 1.3229197 Z"
       sodipodi:nodetypes="cccccccc" />
    <path
       style="fill:none;fill-rule:evenodd;stroke:#aaaaaa;stroke-width:1.32291667;stroke-linecap:round;stroke-linejoin:miter;stroke-opacity:1;stroke-miterlimit:4;stroke-dasharray:none"
       d="M 3.0386962,273.41302 23.36245,273.40208"
       id="path60770" />
    <path
       style="fill:none;fill-rule:evenodd;stroke:#aaaaaa;stroke-width:0.79375;stroke-linecap:round;stroke-linejoin:miter;stroke-miterlimit:4;stroke-dasharray:none;stroke-opacity:1"
       d="m 3.0324313,279.36337 20.3237537,-0.0109"
       id="path60770-6" />
    <path
       style="fill:none;fill-rule:evenodd;stroke:#aaaaaa;stroke-width:0.79375;stroke-linecap:round;stroke-linejoin:miter;stroke-miterlimit:4;stroke-dasharray:none;stroke-opacity:1"
       d="m 2.940957,281.85363 20.323754,-0.0109"
       id="path60770-6-2" />
    <path
       style="fill:none;fill-rule:evenodd;stroke:#aaaaaa;stroke-width:0.79375;stroke-linecap:round;stroke-linejoin:miter;stroke-miterlimit:4;stroke-dasharray:none;stroke-opacity:1"
       d="m 2.9164915,284.06423 20.3237535,-0.0109"
       id="path60770-6-9" />
    <path
       style="fill:none;fill-rule:evenodd;stroke:#aaaaaa;stroke-width:0.79375;stroke-linecap:round;stroke-linejoin:miter;stroke-miterlimit:4;stroke-dasharray:none;stroke-opacity:1"
       d="M 2.9022716,286.3256 23.226025,286.3147"
       id="path60770-6-1" />
    <path
       style="fill:none;fill-rule:evenodd;stroke:#aaaaaa;stroke-width:0.79375;stroke-linecap:round;stroke-linejoin:miter;stroke-miterlimit:4;stroke-dasharray:none;stroke-opacity:1"
       d="m 2.8423277,288.43784 20.3237533,-0.0109"
       id="path60770-6-27" />
    <path
       style="fill:none;fill-rule:evenodd;stroke:#aaaaaa;stroke-width:0.79375;stroke-linecap:round;stroke-linejoin:miter;stroke-miterlimit:4;stroke-dasharray:none;stroke-opacity:1"
       d="m 2.9268835,290.45694 20.3237535,-0.0109"
       id="path60770-6-0" />
    <path
       style="fill:none;fill-rule:evenodd;stroke:#aaaaaa;stroke-width:0.79375;stroke-linecap:round;stroke-linejoin:miter;stroke-miterlimit:4;stroke-dasharray:none;stroke-opacity:1"
       d="m 2.8638283,292.56706 20.3237537,-0.0109"
       id="path60770-6-93" />
    <path
       id="path877"
       style="fill:#aaaaaa;fill-opacity:1;fill-rule:evenodd;stroke:#202020;stroke-width:1.779;stroke-linecap:butt;stroke-linejoin:miter;stroke-miterlimit:4;stroke-dasharray:none;stroke-opacity:1"
       d="m 13.155982,277.60936 c -0.09013,7.8e-4 -0.180097,0.004 -0.270921,0.009 -4.5329028,0.26138 -5.1299866,2.88492 -5.5984969,4.80707 -0.1109704,1.34936 3.0265279,1.30049 2.9382669,0.77045 0.523277,-7.60574 10.323875,-2.1184 1.557234,2.25536 -3.864736,1.98503 -1.259289,2.65335 -1.297466,4.38643 -0.195708,1.35892 2.907804,0.97624 2.886084,-0.54595 0.03276,-0.72576 -1.831331,-2.03095 1.845452,-3.52129 5.920281,-2.27978 3.620681,-8.20686 -2.060153,-8.15854 z m -0.904035,14.15576 c -0.910613,0.0759 -1.748145,1.34562 -1.713309,1.91335 0.0119,0.84983 1.168781,1.29454 2.194957,1.27699 0.94037,-0.009 1.863175,-0.85633 1.853788,-1.6453 0.02363,-0.61747 -1.239032,-1.54651 -2.335436,-1.54504 z"
       sodipodi:nodetypes="ccccccccccccccc" />
    <path
       id="path877-6"
       style="fill:#aaaaaa;fill-opacity:1;fill-rule:evenodd;stroke:none;stroke-width:1.779;stroke-linecap:butt;stroke-linejoin:miter;stroke-miterlimit:4;stroke-dasharray:none;stroke-opacity:1"
       d="m 13.194613,277.55304 c -0.09013,7.8e-4 -0.180097,0.004 -0.270921,0.009 -4.5329034,0.26138 -5.1299874,2.88492 -5.5984974,4.80707 -0.110971,1.34936 3.0265284,1.30049 2.9382674,0.77045 0.523277,-7.60574 10.323875,-2.1184 1.557234,2.25536 -3.8647364,1.98503 -1.259289,2.65335 -1.297466,4.38643 -0.195708,1.35892 2.907804,0.97624 2.886084,-0.54595 0.03276,-0.72576 -1.831331,-2.03095 1.845452,-3.52129 5.920281,-2.27978 3.620681,-8.20686 -2.060153,-8.15854 z m -0.904035,14.15576 c -0.910613,0.0759 -1.748145,1.34562 -1.713309,1.91335 0.0119,0.84983 1.168781,1.29454 2.194957,1.27699 0.94037,-0.009 1.863175,-0.85633 1.853788,-1.6453 0.02363,-0.61747 -1.239032,-1.54651 -2.335436,-1.54504 z"
       sodipodi:nodetypes="ccccccccccccccc" />
  </g>
</svg>
