<?xml version="1.0" encoding="UTF-8" standalone="no"?>
<svg
   version="1.1"
   id="Layer_1"
   x="0px"
   y="0px"
   viewBox="0 0 122.43 122.88"
   style="enable-background:new 0 0 122.43 122.88"
   xml:space="preserve"
   sodipodi:docname="service17-default-icon.svg"
   inkscape:version="1.2.2 (b0a8486541, 2022-12-01)"
   xmlns:inkscape="http://www.inkscape.org/namespaces/inkscape"
   xmlns:sodipodi="http://sodipodi.sourceforge.net/DTD/sodipodi-0.dtd"
   xmlns="http://www.w3.org/2000/svg"
   xmlns:svg="http://www.w3.org/2000/svg"><defs
     id="defs4027" /><sodipodi:namedview
     id="namedview4025"
     pagecolor="#ffffff"
     bordercolor="#666666"
     borderopacity="1.0"
     inkscape:showpageshadow="2"
     inkscape:pageopacity="0.0"
     inkscape:pagecheckerboard="0"
     inkscape:deskcolor="#d1d1d1"
     showgrid="false"
     inkscape:zoom="8.5693361"
     inkscape:cx="61.264956"
     inkscape:cy="61.556694"
     inkscape:window-width="2494"
     inkscape:window-height="1371"
     inkscape:window-x="66"
     inkscape:window-y="32"
     inkscape:window-maximized="1"
     inkscape:current-layer="Layer_1" /><style
     type="text/css"
     id="style4018">.st0{fill-rule:evenodd;clip-rule:evenodd;}</style><g
     id="g4022"
     style="fill:#30a8cc;fill-opacity:1"><path
       class="st0"
       d="M53.69,103.92c5.23,0,9.48,4.25,9.48,9.48c0,5.24-4.25,9.48-9.48,9.48c-5.24,0-9.48-4.24-9.48-9.48 C44.21,108.16,48.45,103.92,53.69,103.92L53.69,103.92z M88.46,39.84c2.75-0.02,4.98,2.19,4.97,4.94c0,2.75-2.24,5-4.99,5.02 L76.38,49.9l-9.96,0.07L54.4,50.05c-2.75,0.02-4.98-2.19-4.97-4.94c0.01-2.75,2.24-5,5-5.02L66.49,40l9.96-0.07L88.46,39.84 L88.46,39.84z M22.63,12.6h93.3c6.1,0,5.77,2.47,5.24,8.77l-3.47,44.24c-0.59,7.05-0.09,5.34-7.56,6.41l-68.62,8.73l3.63,10.53 c29.77,0,44.16,0,73.91,0c1,3.74,2.36,9.83,3.36,14h-12.28l-1.18-4.26c-24.8,0-34.25,0-59.06,0c-13.55-0.23-12.19,3.44-15.44-8.27 L11.18,8.11H0V0h19.61C20.52,3.41,21.78,9.15,22.63,12.6L22.63,12.6z M92.79,103.92c5.23,0,9.48,4.25,9.48,9.48 c0,5.24-4.25,9.48-9.48,9.48c-5.24,0-9.48-4.24-9.48-9.48C83.31,108.16,87.56,103.92,92.79,103.92L92.79,103.92z"
       id="path4020"
       style="fill:#30a8cc;fill-opacity:1" /></g></svg>
